<?xml version="1.0" standalone="no"?>
<!DOCTYPE svg PUBLIC "-//W3C//DTD SVG 20010904//EN"
 "http://www.w3.org/TR/2001/REC-SVG-20010904/DTD/svg10.dtd">
<svg version="1.0" xmlns="http://www.w3.org/2000/svg"
 width="512.000000pt" height="512.000000pt" viewBox="0 0 512.000000 512.000000"
 preserveAspectRatio="xMidYMid meet">
<metadata>
Created by potrace 1.11, written by Peter Selinger 2001-2013
</metadata>
<g transform="translate(0.000000,512.000000) scale(0.100000,-0.100000)"
fill="#000000" stroke="none">
<path d="M1915 4855 c-236 -140 -437 -259 -445 -264 -8 -5 -132 -78 -274 -163
-245 -144 -372 -219 -788 -465 -95 -56 -181 -108 -191 -115 -16 -12 -17 -82
-15 -1290 l3 -1276 105 62 c189 114 505 301 526 312 11 6 130 76 265 156 134
80 350 207 479 283 129 76 251 148 270 160 19 13 40 24 45 26 6 2 114 66 241
142 l231 138 0 1274 c0 920 -3 1275 -11 1274 -6 0 -204 -115 -441 -254z"/>
<path d="M4310 3708 c-118 -70 -222 -131 -230 -136 -19 -11 -363 -215 -570
-337 -85 -50 -220 -130 -300 -177 -80 -47 -257 -152 -395 -233 -137 -82 -259
-153 -270 -159 -63 -35 -166 -100 -172 -109 -4 -8 -8 -2475 -4 -2544 1 -6 169
88 374 209 204 121 426 252 492 291 66 39 190 112 275 162 385 228 548 324
580 343 49 28 434 255 439 259 7 5 7 2531 1 2547 -3 8 -75 -29 -220 -116z"/>
</g>
</svg>
